<svg xmlns="http://www.w3.org/2000/svg" viewBox="0 0 1200 675" width="100%" height="100%">
  <defs>
    <!-- Background Gradients -->
    <linearGradient id="bgGlow" x1="0%" y1="0%" x2="0%" y2="100%">
      <stop offset="0%" stop-color="#05060b"/>
      <stop offset="60%" stop-color="#0a0c16"/>
      <stop offset="100%" stop-color="#030408"/>
    </linearGradient>

    <!-- Neon Ceiling Ambient -->
    <radialGradient id="ceilingLight" cx="50%" cy="10%" r="60%">
      <stop offset="0%" stop-color="#3b82f6" stop-opacity="0.25"/>
      <stop offset="50%" stop-color="#8b5cf6" stop-opacity="0.12"/>
      <stop offset="100%" stop-color="#000000" stop-opacity="0"/>
    </radialGradient>

    <!-- Cabinet Gradients -->
    <linearGradient id="openaiGrad" x1="0%" y1="0%" x2="100%" y2="0%">
      <stop offset="0%" stop-color="#10b981"/>
      <stop offset="100%" stop-color="#06b6d4"/>
    </linearGradient>

    <linearGradient id="claudeGrad" x1="0%" y1="0%" x2="100%" y2="0%">
      <stop offset="0%" stop-color="#f59e0b"/>
      <stop offset="100%" stop-color="#d97706"/>
    </linearGradient>

    <linearGradient id="geminiGrad" x1="0%" y1="0%" x2="100%" y2="0%">
      <stop offset="0%" stop-color="#3b82f6"/>
      <stop offset="50%" stop-color="#8b5cf6"/>
      <stop offset="100%" stop-color="#06b6d4"/>
    </linearGradient>

    <linearGradient id="deepseekGrad" x1="0%" y1="0%" x2="100%" y2="0%">
      <stop offset="0%" stop-color="#22d3ee"/>
      <stop offset="100%" stop-color="#38bdf8"/>
    </linearGradient>

    <linearGradient id="metaGrad" x1="0%" y1="0%" x2="100%" y2="0%">
      <stop offset="0%" stop-color="#a855f7"/>
      <stop offset="100%" stop-color="#ec4899"/>
    </linearGradient>

    <!-- CRT Screen Gradients -->
    <linearGradient id="crtGlass" x1="0%" y1="0%" x2="0%" y2="100%">
      <stop offset="0%" stop-color="#182234"/>
      <stop offset="50%" stop-color="#090d15"/>
      <stop offset="100%" stop-color="#020408"/>
    </linearGradient>

    <!-- Grid Floor -->
    <linearGradient id="gridFade" x1="0%" y1="0%" x2="0%" y2="100%">
      <stop offset="0%" stop-color="#c5a059" stop-opacity="0"/>
      <stop offset="10%" stop-color="#c5a059" stop-opacity="0.15"/>
      <stop offset="100%" stop-color="#c5a059" stop-opacity="0.4"/>
    </linearGradient>

    <!-- Filter Glow -->
    <filter id="neonGlow" x="-20%" y="-20%" width="140%" height="140%">
      <feGaussianBlur stdDeviation="6" result="blur"/>
      <feMerge>
        <feMergeNode in="blur"/>
        <feMergeNode in="SourceGraphic"/>
      </feMerge>
    </filter>

    <filter id="softGlow" x="-20%" y="-20%" width="140%" height="140%">
      <feGaussianBlur stdDeviation="12" result="blur"/>
      <feMerge>
        <feMergeNode in="blur"/>
        <feMergeNode in="SourceGraphic"/>
      </feMerge>
    </filter>

    <!-- CRT Scanlines Pattern -->
    <pattern id="scanlines" width="100" height="4" patternUnits="userSpaceOnUse">
      <line x1="0" y1="0" x2="100" y2="0" stroke="#000000" stroke-width="1.8" opacity="0.45"/>
    </pattern>
  </defs>

  <!-- Background -->
  <rect width="1200" height="675" fill="url(#bgGlow)"/>
  <rect width="1200" height="350" fill="url(#ceilingLight)"/>

  <!-- Retro Cyber Grid Floor (Perspective) -->
  <g opacity="0.5">
    <path d="M 0 520 L 1200 520 M 0 540 L 1200 540 M 0 565 L 1200 565 M 0 595 L 1200 595 M 0 630 L 1200 630 M 0 675 L 1200 675" stroke="#3b82f6" stroke-width="1" opacity="0.4"/>
    <!-- Diagonal floor grid lines meeting at horizon (600, 480) -->
    <line x1="600" y1="480" x2="-200" y2="675" stroke="#3b82f6" stroke-width="1" opacity="0.3"/>
    <line x1="600" y1="480" x2="0" y2="675" stroke="#3b82f6" stroke-width="1.2" opacity="0.4"/>
    <line x1="600" y1="480" x2="200" y2="675" stroke="#3b82f6" stroke-width="1.2" opacity="0.4"/>
    <line x1="600" y1="480" x2="400" y2="675" stroke="#3b82f6" stroke-width="1.2" opacity="0.4"/>
    <line x1="600" y1="480" x2="600" y2="675" stroke="#c5a059" stroke-width="1.5" opacity="0.6"/>
    <line x1="600" y1="480" x2="800" y2="675" stroke="#3b82f6" stroke-width="1.2" opacity="0.4"/>
    <line x1="600" y1="480" x2="1000" y2="675" stroke="#3b82f6" stroke-width="1.2" opacity="0.4"/>
    <line x1="600" y1="480" x2="1200" y2="675" stroke="#3b82f6" stroke-width="1.2" opacity="0.4"/>
    <line x1="600" y1="480" x2="1400" y2="675" stroke="#3b82f6" stroke-width="1" opacity="0.3"/>
  </g>

  <!-- Big Room Neon Title Header on Wall -->
  <g text-anchor="middle" font-family="'Courier New', monospace">
    <text x="600" y="55" fill="#c5a059" font-size="14" font-weight="bold" letter-spacing="6" opacity="0.8">
      // NOVUX D&amp;D • SALÓN DE LA ECONOMÍA DEL TOKEN EN SISTEMAS COGNITIVOS
    </text>
    <text x="600" y="85" fill="#ffe066" font-size="20" font-weight="900" letter-spacing="4" filter="url(#neonGlow)">
      ARCADE ROOM : DOMINIO DE LOS MODELOS DE IA
    </text>
  </g>

  <!-- ========================================== -->
  <!-- GABINETE 1: OPENAI (GPT-4o / o1)           -->
  <!-- ========================================== -->
  <g transform="translate(45, 110)">
    <!-- Cabinet Body -->
    <path d="M 10 380 L 15 40 L 185 40 L 190 380 Z" fill="#0c111d" stroke="#10b981" stroke-width="2" opacity="0.9"/>
    <path d="M 5 450 L 10 380 L 190 380 L 195 450 Z" fill="#080c14" stroke="#10b981" stroke-width="1.5"/>

    <!-- Marquee Header -->
    <rect x="22" y="48" width="156" height="42" rx="4" fill="#041f18" stroke="#10b981" stroke-width="2" filter="url(#neonGlow)"/>
    <text x="100" y="68" fill="#a7f3d0" font-family="'Courier New', monospace" font-size="12" font-weight="900" text-anchor="middle" letter-spacing="1">
      OPENAI
    </text>
    <text x="100" y="82" fill="#34d399" font-family="'Courier New', monospace" font-size="9" font-weight="bold" text-anchor="middle">
      GPT-4o / o1
    </text>

    <!-- CRT Monitor Bezel -->
    <rect x="25" y="105" width="150" height="150" rx="8" fill="#05080f" stroke="#1e293b" stroke-width="3"/>
    <!-- CRT Curved Screen Glass -->
    <rect x="30" y="110" width="140" height="140" rx="6" fill="#021f17"/>
    <rect x="30" y="110" width="140" height="140" rx="6" fill="url(#scanlines)" opacity="0.6"/>

    <!-- CRT Screen Content -->
    <text x="100" y="132" fill="#10b981" font-family="'Courier New', monospace" font-size="10" font-weight="bold" text-anchor="middle">
      COSTO POR TOKEN
    </text>
    <line x1="38" y1="138" x2="162" y2="138" stroke="#10b981" stroke-width="1" opacity="0.6"/>

    <!-- Pricing Values -->
    <text x="40" y="160" fill="#6ee7b7" font-family="'Courier New', monospace" font-size="9">INPUT:</text>
    <text x="160" y="160" fill="#facc15" font-family="'Courier New', monospace" font-size="11" font-weight="bold" text-anchor="end">$2.50 / 1M</text>

    <text x="40" y="180" fill="#6ee7b7" font-family="'Courier New', monospace" font-size="9">OUTPUT:</text>
    <text x="160" y="180" fill="#34d399" font-family="'Courier New', monospace" font-size="11" font-weight="bold" text-anchor="end">$10.00 / 1M</text>

    <text x="40" y="202" fill="#94a3b8" font-family="'Courier New', monospace" font-size="8">TOLVA (CTX):</text>
    <text x="160" y="202" fill="#38bdf8" font-family="'Courier New', monospace" font-size="9" text-anchor="end">128,000 tok</text>

    <text x="40" y="222" fill="#94a3b8" font-family="'Courier New', monospace" font-size="8">BPE VOCAB:</text>
    <text x="160" y="222" fill="#a78bfa" font-family="'Courier New', monospace" font-size="9" text-anchor="end">200k o200k</text>

    <rect x="42" y="232" width="116" height="14" rx="2" fill="#064e3b" stroke="#10b981" stroke-width="1"/>
    <text x="100" y="242" fill="#a7f3d0" font-family="'Courier New', monospace" font-size="7.5" font-weight="bold" text-anchor="middle">
      INSERT TOKEN // 2.5¢
    </text>

    <!-- Control Deck (Joystick + Pushbuttons) -->
    <polygon points="18,265 182,265 190,320 10,320" fill="#0e1726" stroke="#10b981" stroke-width="1.5"/>
    <!-- Joystick -->
    <circle cx="55" cy="292" r="7" fill="#ef4444"/>
    <line x1="55" y1="292" x2="55" y2="305" stroke="#94a3b8" stroke-width="3"/>
    <ellipse cx="55" cy="305" rx="10" ry="4" fill="#000000"/>
    <!-- Arcade Buttons -->
    <circle cx="95" cy="285" r="4.5" fill="#3b82f6"/>
    <circle cx="112" cy="285" r="4.5" fill="#eab308"/>
    <circle cx="129" cy="285" r="4.5" fill="#ef4444"/>
    <circle cx="103" cy="300" r="4.5" fill="#10b981"/>
    <circle cx="120" cy="300" r="4.5" fill="#a855f7"/>

    <!-- Coin Door & Slot -->
    <rect x="45" y="335" width="110" height="75" fill="#050810" stroke="#1e293b" stroke-width="2"/>
    <!-- Coin Slots with Orange Glow -->
    <rect x="62" y="348" width="16" height="26" fill="#000" stroke="#f59e0b" stroke-width="1.5"/>
    <line x1="70" y1="353" x2="70" y2="368" stroke="#fbbf24" stroke-width="2"/>
    <rect x="122" y="348" width="16" height="26" fill="#000" stroke="#f59e0b" stroke-width="1.5"/>
    <line x1="130" y1="353" x2="130" y2="368" stroke="#fbbf24" stroke-width="2"/>
    <text x="100" y="400" fill="#64748b" font-family="'Courier New', monospace" font-size="8" text-anchor="middle">25¢ TOKEN COIN</text>
  </g>

  <!-- ========================================== -->
  <!-- GABINETE 2: ANTHROPIC (CLAUDE 3.5 SONNET)  -->
  <!-- ========================================== -->
  <g transform="translate(270, 100)">
    <!-- Cabinet Body -->
    <path d="M 10 390 L 15 35 L 185 35 L 190 390 Z" fill="#120e09" stroke="#f59e0b" stroke-width="2" opacity="0.9"/>
    <path d="M 5 460 L 10 390 L 190 390 L 195 460 Z" fill="#0c0804" stroke="#f59e0b" stroke-width="1.5"/>

    <!-- Marquee Header -->
    <rect x="22" y="43" width="156" height="42" rx="4" fill="#2d1704" stroke="#f59e0b" stroke-width="2" filter="url(#neonGlow)"/>
    <text x="100" y="63" fill="#fef3c7" font-family="'Courier New', monospace" font-size="12" font-weight="900" text-anchor="middle" letter-spacing="1">
      ANTHROPIC
    </text>
    <text x="100" y="77" fill="#f59e0b" font-family="'Courier New', monospace" font-size="9" font-weight="bold" text-anchor="middle">
      CLAUDE 3.5 SONNET
    </text>

    <!-- CRT Monitor Bezel -->
    <rect x="25" y="100" width="150" height="150" rx="8" fill="#0f0b06" stroke="#292015" stroke-width="3"/>
    <!-- CRT Curved Screen Glass (Amber Phosphor) -->
    <rect x="30" y="105" width="140" height="140" rx="6" fill="#1f1304"/>
    <rect x="30" y="105" width="140" height="140" rx="6" fill="url(#scanlines)" opacity="0.6"/>

    <!-- CRT Screen Content -->
    <text x="100" y="127" fill="#fbbf24" font-family="'Courier New', monospace" font-size="10" font-weight="bold" text-anchor="middle">
      COSTO POR TOKEN
    </text>
    <line x1="38" y1="133" x2="162" y2="133" stroke="#f59e0b" stroke-width="1" opacity="0.6"/>

    <!-- Pricing Values -->
    <text x="40" y="155" fill="#fde68a" font-family="'Courier New', monospace" font-size="9">INPUT:</text>
    <text x="160" y="155" fill="#facc15" font-family="'Courier New', monospace" font-size="11" font-weight="bold" text-anchor="end">$3.00 / 1M</text>

    <text x="40" y="175" fill="#fde68a" font-family="'Courier New', monospace" font-size="9">OUTPUT:</text>
    <text x="160" y="175" fill="#fb923c" font-family="'Courier New', monospace" font-size="11" font-weight="bold" text-anchor="end">$15.00 / 1M</text>

    <text x="40" y="197" fill="#cbd5e1" font-family="'Courier New', monospace" font-size="8">CACHE HIT:</text>
    <text x="160" y="197" fill="#4ade80" font-family="'Courier New', monospace" font-size="9" font-weight="bold" text-anchor="end">$0.30 (-90%)</text>

    <text x="40" y="217" fill="#94a3b8" font-family="'Courier New', monospace" font-size="8">TOLVA (CTX):</text>
    <text x="160" y="217" fill="#38bdf8" font-family="'Courier New', monospace" font-size="9" text-anchor="end">200,000 tok</text>

    <rect x="42" y="227" width="116" height="14" rx="2" fill="#78350f" stroke="#f59e0b" stroke-width="1"/>
    <text x="100" y="237" fill="#fef3c7" font-family="'Courier New', monospace" font-size="7.5" font-weight="bold" text-anchor="middle">
      PROMPT CACHING 90%
    </text>

    <!-- Control Deck -->
    <polygon points="18,260 182,260 190,315 10,315" fill="#1c1307" stroke="#f59e0b" stroke-width="1.5"/>
    <circle cx="55" cy="287" r="7" fill="#f97316"/>
    <line x1="55" y1="287" x2="55" y2="300" stroke="#94a3b8" stroke-width="3"/>
    <ellipse cx="55" cy="300" rx="10" ry="4" fill="#000000"/>
    <circle cx="95" cy="280" r="4.5" fill="#eab308"/>
    <circle cx="112" cy="280" r="4.5" fill="#f97316"/>
    <circle cx="129" cy="280" r="4.5" fill="#ef4444"/>
    <circle cx="103" cy="295" r="4.5" fill="#10b981"/>
    <circle cx="120" cy="295" r="4.5" fill="#38bdf8"/>

    <!-- Coin Door -->
    <rect x="45" y="330" width="110" height="75" fill="#0f0b06" stroke="#292015" stroke-width="2"/>
    <rect x="62" y="343" width="16" height="26" fill="#000" stroke="#d97706" stroke-width="1.5"/>
    <line x1="70" y1="348" x2="70" y2="363" stroke="#f59e0b" stroke-width="2"/>
    <rect x="122" y="343" width="16" height="26" fill="#000" stroke="#d97706" stroke-width="1.5"/>
    <line x1="130" y1="348" x2="130" y2="363" stroke="#f59e0b" stroke-width="2"/>
    <text x="100" y="395" fill="#78716c" font-family="'Courier New', monospace" font-size="8" text-anchor="middle">NEO GEO COIN</text>
  </g>

  <!-- ========================================== -->
  <!-- GABINETE 3: GOOGLE GEMINI (CENTRAL TITAN)  -->
  <!-- ========================================== -->
  <g transform="translate(495, 80)">
    <!-- Cabinet Body (Larger, Centerpiece) -->
    <path d="M 5 410 L 12 25 L 198 25 L 205 410 Z" fill="#0b1126" stroke="#3b82f6" stroke-width="2.5" filter="url(#softGlow)" opacity="0.95"/>
    <path d="M 0 480 L 5 410 L 205 410 L 210 480 Z" fill="#060917" stroke="#3b82f6" stroke-width="2"/>

    <!-- Marquee Header -->
    <rect x="20" y="33" width="170" height="46" rx="4" fill="#0a1945" stroke="#60a5fa" stroke-width="2.5" filter="url(#neonGlow)"/>
    <text x="105" y="55" fill="#dbeafe" font-family="'Courier New', monospace" font-size="13" font-weight="900" text-anchor="middle" letter-spacing="2">
      GOOGLE DEEPMIND
    </text>
    <text x="105" y="70" fill="#38bdf8" font-family="'Courier New', monospace" font-size="10" font-weight="bold" text-anchor="middle">
      GEMINI 1.5 PRO / FLASH
    </text>

    <!-- CRT Monitor Bezel -->
    <rect x="22" y="92" width="166" height="158" rx="10" fill="#060c1d" stroke="#1d4ed8" stroke-width="3"/>
    <!-- CRT Curved Screen Glass (Deep Electric Blue) -->
    <rect x="28" y="98" width="154" height="146" rx="8" fill="#02102e"/>
    <rect x="28" y="98" width="154" height="146" rx="8" fill="url(#scanlines)" opacity="0.6"/>

    <!-- CRT Screen Content -->
    <text x="105" y="120" fill="#60a5fa" font-family="'Courier New', monospace" font-size="11" font-weight="900" text-anchor="middle">
      COSTO POR TOKEN
    </text>
    <line x1="38" y1="126" x2="172" y2="126" stroke="#3b82f6" stroke-width="1.2" opacity="0.7"/>

    <!-- Pricing Values -->
    <text x="40" y="148" fill="#93c5fd" font-family="'Courier New', monospace" font-size="9.5">FLASH IN:</text>
    <text x="170" y="148" fill="#4ade80" font-family="'Courier New', monospace" font-size="11.5" font-weight="900" text-anchor="end">$0.075 / 1M</text>

    <text x="40" y="170" fill="#93c5fd" font-family="'Courier New', monospace" font-size="9.5">PRO IN:</text>
    <text x="170" y="170" fill="#facc15" font-family="'Courier New', monospace" font-size="11.5" font-weight="900" text-anchor="end">$1.25 / 1M</text>

    <text x="40" y="193" fill="#cbd5e1" font-family="'Courier New', monospace" font-size="8.5">TOLVA GIGANTE:</text>
    <text x="170" y="193" fill="#38bdf8" font-family="'Courier New', monospace" font-size="10.5" font-weight="bold" text-anchor="end">2,000,000 tok</text>

    <text x="40" y="214" fill="#94a3b8" font-family="'Courier New', monospace" font-size="8.5">VOCAB BPE:</text>
    <text x="170" y="214" fill="#c084fc" font-family="'Courier New', monospace" font-size="9.5" text-anchor="end">256k tokens</text>

    <rect x="36" y="224" width="138" height="16" rx="3" fill="#1e3a8a" stroke="#60a5fa" stroke-width="1.2"/>
    <text x="105" y="235" fill="#facc15" font-family="'Courier New', monospace" font-size="8" font-weight="900" text-anchor="middle">
      ★ TOLVA 2M // SIN CASTIGO ES ★
    </text>

    <!-- Control Deck -->
    <polygon points="14,260 196,260 205,320 5,320" fill="#0f1b3b" stroke="#3b82f6" stroke-width="2"/>
    <circle cx="58" cy="290" r="8" fill="#3b82f6"/>
    <line x1="58" y1="290" x2="58" y2="304" stroke="#e2e8f0" stroke-width="3.5"/>
    <ellipse cx="58" cy="304" rx="11" ry="4.5" fill="#000000"/>
    <circle cx="105" cy="282" r="5" fill="#ef4444"/>
    <circle cx="124" cy="282" r="5" fill="#f59e0b"/>
    <circle cx="143" cy="282" r="5" fill="#10b981"/>
    <circle cx="114" cy="298" r="5" fill="#3b82f6"/>
    <circle cx="133" cy="298" r="5" fill="#a855f7"/>

    <!-- Coin Door -->
    <rect x="48" y="338" width="114" height="80" fill="#060c1d" stroke="#1d4ed8" stroke-width="2"/>
    <rect x="66" y="352" width="18" height="28" fill="#000" stroke="#3b82f6" stroke-width="1.8"/>
    <line x1="75" y1="358" x2="75" y2="374" stroke="#60a5fa" stroke-width="2"/>
    <rect x="126" y="352" width="18" height="28" fill="#000" stroke="#3b82f6" stroke-width="1.8"/>
    <line x1="135" y1="358" x2="135" y2="374" stroke="#60a5fa" stroke-width="2"/>
    <text x="105" y="406" fill="#93c5fd" font-family="'Courier New', monospace" font-size="8.5" font-weight="bold" text-anchor="middle">INSERT COIN // 2M HOPPER</text>
  </g>

  <!-- ========================================== -->
  <!-- GABINETE 4: DEEPSEEK (V3 / R1)             -->
  <!-- ========================================== -->
  <g transform="translate(735, 100)">
    <!-- Cabinet Body -->
    <path d="M 10 390 L 15 35 L 185 35 L 190 390 Z" fill="#08141e" stroke="#22d3ee" stroke-width="2" opacity="0.9"/>
    <path d="M 5 460 L 10 390 L 190 390 L 195 460 Z" fill="#040b12" stroke="#22d3ee" stroke-width="1.5"/>

    <!-- Marquee Header -->
    <rect x="22" y="43" width="156" height="42" rx="4" fill="#082f49" stroke="#22d3ee" stroke-width="2" filter="url(#neonGlow)"/>
    <text x="100" y="63" fill="#cffafe" font-family="'Courier New', monospace" font-size="12" font-weight="900" text-anchor="middle" letter-spacing="1">
      DEEPSEEK AI
    </text>
    <text x="100" y="77" fill="#38bdf8" font-family="'Courier New', monospace" font-size="9" font-weight="bold" text-anchor="middle">
      DEEPSEEK-V3 / R1
    </text>

    <!-- CRT Monitor Bezel -->
    <rect x="25" y="100" width="150" height="150" rx="8" fill="#04121d" stroke="#0e7490" stroke-width="3"/>
    <!-- CRT Curved Screen Glass (Cyan Phosphor) -->
    <rect x="30" y="105" width="140" height="140" rx="6" fill="#021d2b"/>
    <rect x="30" y="105" width="140" height="140" rx="6" fill="url(#scanlines)" opacity="0.6"/>

    <!-- CRT Screen Content -->
    <text x="100" y="127" fill="#22d3ee" font-family="'Courier New', monospace" font-size="10" font-weight="bold" text-anchor="middle">
      COSTO POR TOKEN
    </text>
    <line x1="38" y1="133" x2="162" y2="133" stroke="#22d3ee" stroke-width="1" opacity="0.6"/>

    <!-- Pricing Values -->
    <text x="40" y="155" fill="#a5f3fc" font-family="'Courier New', monospace" font-size="9">INPUT:</text>
    <text x="160" y="155" fill="#4ade80" font-family="'Courier New', monospace" font-size="11" font-weight="bold" text-anchor="end">$0.14 / 1M</text>

    <text x="40" y="175" fill="#a5f3fc" font-family="'Courier New', monospace" font-size="9">OUTPUT:</text>
    <text x="160" y="175" fill="#38bdf8" font-family="'Courier New', monospace" font-size="11" font-weight="bold" text-anchor="end">$0.28 / 1M</text>

    <text x="40" y="197" fill="#cbd5e1" font-family="'Courier New', monospace" font-size="8">CACHE HIT:</text>
    <text x="160" y="197" fill="#a3e635" font-family="'Courier New', monospace" font-size="9" font-weight="bold" text-anchor="end">$0.014 / 1M</text>

    <text x="40" y="217" fill="#94a3b8" font-family="'Courier New', monospace" font-size="8">TOLVA (CTX):</text>
    <text x="160" y="217" fill="#38bdf8" font-family="'Courier New', monospace" font-size="9" text-anchor="end">64,000 tok</text>

    <rect x="42" y="227" width="116" height="14" rx="2" fill="#0e7490" stroke="#22d3ee" stroke-width="1"/>
    <text x="100" y="237" fill="#cffafe" font-family="'Courier New', monospace" font-size="7.5" font-weight="bold" text-anchor="middle">
      ★ DEFLACIÓN 0.14¢ ★
    </text>

    <!-- Control Deck -->
    <polygon points="18,260 182,260 190,315 10,315" fill="#082030" stroke="#22d3ee" stroke-width="1.5"/>
    <circle cx="55" cy="287" r="7" fill="#06b6d4"/>
    <line x1="55" y1="287" x2="55" y2="300" stroke="#94a3b8" stroke-width="3"/>
    <ellipse cx="55" cy="300" rx="10" ry="4" fill="#000000"/>
    <circle cx="95" cy="280" r="4.5" fill="#3b82f6"/>
    <circle cx="112" cy="280" r="4.5" fill="#22d3ee"/>
    <circle cx="129" cy="280" r="4.5" fill="#10b981"/>
    <circle cx="103" cy="295" r="4.5" fill="#eab308"/>
    <circle cx="120" cy="295" r="4.5" fill="#ec4899"/>

    <!-- Coin Door -->
    <rect x="45" y="330" width="110" height="75" fill="#04121d" stroke="#0e7490" stroke-width="2"/>
    <rect x="62" y="343" width="16" height="26" fill="#000" stroke="#0891b2" stroke-width="1.5"/>
    <line x1="70" y1="348" x2="70" y2="363" stroke="#22d3ee" stroke-width="2"/>
    <rect x="122" y="343" width="16" height="26" fill="#000" stroke="#0891b2" stroke-width="1.5"/>
    <line x1="130" y1="348" x2="130" y2="363" stroke="#22d3ee" stroke-width="2"/>
    <text x="100" y="395" fill="#06b6d4" font-family="'Courier New', monospace" font-size="8" text-anchor="middle">0.14¢ COIN DROP</text>
  </g>

  <!-- ========================================== -->
  <!-- GABINETE 5: META AI (LLAMA 3.1)           -->
  <!-- ========================================== -->
  <g transform="translate(965, 110)">
    <!-- Cabinet Body -->
    <path d="M 10 380 L 15 40 L 185 40 L 190 380 Z" fill="#150a1e" stroke="#a855f7" stroke-width="2" opacity="0.9"/>
    <path d="M 5 450 L 10 380 L 190 380 L 195 450 Z" fill="#0c0512" stroke="#a855f7" stroke-width="1.5"/>

    <!-- Marquee Header -->
    <rect x="22" y="48" width="156" height="42" rx="4" fill="#3b0764" stroke="#a855f7" stroke-width="2" filter="url(#neonGlow)"/>
    <text x="100" y="68" fill="#f3e8ff" font-family="'Courier New', monospace" font-size="12" font-weight="900" text-anchor="middle" letter-spacing="1">
      META AI
    </text>
    <text x="100" y="82" fill="#c084fc" font-family="'Courier New', monospace" font-size="9" font-weight="bold" text-anchor="middle">
      LLAMA 3.3 70B / 405B
    </text>

    <!-- CRT Monitor Bezel -->
    <rect x="25" y="105" width="150" height="150" rx="8" fill="#12061b" stroke="#581c87" stroke-width="3"/>
    <!-- CRT Curved Screen Glass (Magenta Phosphor) -->
    <rect x="30" y="110" width="140" height="140" rx="6" fill="#240733"/>
    <rect x="30" y="110" width="140" height="140" rx="6" fill="url(#scanlines)" opacity="0.6"/>

    <!-- CRT Screen Content -->
    <text x="100" y="132" fill="#d8b4fe" font-family="'Courier New', monospace" font-size="10" font-weight="bold" text-anchor="middle">
      COSTO POR TOKEN
    </text>
    <line x1="38" y1="138" x2="162" y2="138" stroke="#a855f7" stroke-width="1" opacity="0.6"/>

    <!-- Pricing Values -->
    <text x="40" y="160" fill="#e9d5ff" font-family="'Courier New', monospace" font-size="9">SELF-HOST:</text>
    <text x="160" y="160" fill="#4ade80" font-family="'Courier New', monospace" font-size="11" font-weight="bold" text-anchor="end">$0.00 (OPEN)</text>

    <text x="40" y="180" fill="#e9d5ff" font-family="'Courier New', monospace" font-size="9">CLOUD API:</text>
    <text x="160" y="180" fill="#facc15" font-family="'Courier New', monospace" font-size="11" font-weight="bold" text-anchor="end">$0.60 / 1M</text>

    <text x="40" y="202" fill="#94a3b8" font-family="'Courier New', monospace" font-size="8">TOLVA (CTX):</text>
    <text x="160" y="202" fill="#38bdf8" font-family="'Courier New', monospace" font-size="9" text-anchor="end">128,000 tok</text>

    <text x="40" y="222" fill="#94a3b8" font-family="'Courier New', monospace" font-size="8">VOCAB BPE:</text>
    <text x="160" y="222" fill="#c084fc" font-family="'Courier New', monospace" font-size="9" text-anchor="end">128k tiktoken</text>

    <rect x="42" y="232" width="116" height="14" rx="2" fill="#6b21a8" stroke="#c084fc" stroke-width="1"/>
    <text x="100" y="242" fill="#f3e8ff" font-family="'Courier New', monospace" font-size="7.5" font-weight="bold" text-anchor="middle">
      OPEN WEIGHTS ARCADE
    </text>

    <!-- Control Deck -->
    <polygon points="18,265 182,265 190,320 10,320" fill="#200a2e" stroke="#a855f7" stroke-width="1.5"/>
    <circle cx="55" cy="292" r="7" fill="#ec4899"/>
    <line x1="55" y1="292" x2="55" y2="305" stroke="#94a3b8" stroke-width="3"/>
    <ellipse cx="55" cy="305" rx="10" ry="4" fill="#000000"/>
    <circle cx="95" cy="285" r="4.5" fill="#a855f7"/>
    <circle cx="112" cy="285" r="4.5" fill="#ec4899"/>
    <circle cx="129" cy="285" r="4.5" fill="#3b82f6"/>
    <circle cx="103" cy="300" r="4.5" fill="#10b981"/>
    <circle cx="120" cy="300" r="4.5" fill="#facc15"/>

    <!-- Coin Door -->
    <rect x="45" y="335" width="110" height="75" fill="#12061b" stroke="#581c87" stroke-width="2"/>
    <rect x="62" y="348" width="16" height="26" fill="#000" stroke="#9333ea" stroke-width="1.5"/>
    <line x1="70" y1="353" x2="70" y2="368" stroke="#c084fc" stroke-width="2"/>
    <rect x="122" y="348" width="16" height="26" fill="#000" stroke="#9333ea" stroke-width="1.5"/>
    <line x1="130" y1="353" x2="130" y2="368" stroke="#c084fc" stroke-width="2"/>
    <text x="100" y="400" fill="#a855f7" font-family="'Courier New', monospace" font-size="8" text-anchor="middle">FREE / OPEN COIN</text>
  </g>

  <!-- Ambient Light Reflection on Floor -->
  <ellipse cx="140" cy="550" rx="90" ry="15" fill="#10b981" opacity="0.1" filter="url(#softGlow)"/>
  <ellipse cx="365" cy="550" rx="90" ry="15" fill="#f59e0b" opacity="0.1" filter="url(#softGlow)"/>
  <ellipse cx="600" cy="550" rx="120" ry="20" fill="#3b82f6" opacity="0.18" filter="url(#softGlow)"/>
  <ellipse cx="830" cy="550" rx="90" ry="15" fill="#22d3ee" opacity="0.12" filter="url(#softGlow)"/>
  <ellipse cx="1060" cy="550" rx="90" ry="15" fill="#a855f7" opacity="0.1" filter="url(#softGlow)"/>

  <!-- Footer Banner Overlay -->
  <rect x="250" y="605" width="700" height="42" rx="6" fill="#05070e" stroke="#c5a059" stroke-width="1.5" opacity="0.95"/>
  <text x="600" y="631" fill="#ffe066" font-family="'Courier New', monospace" font-size="12" font-weight="bold" text-anchor="middle" letter-spacing="1">
    [ 1 TOKEN = 1 FICHA DE JUEGO // LA CUENTA DE RESULTADOS P&amp;L EN INFERENCIA ]
  </text>
</svg>
